HIERARCHY
ROOT Hips
{
	OFFSET 0.00000 0.00000 0.00000
	CHANNELS 6 Xposition Yposition Zposition Zrotation Yrotation Xrotation 
	JOINT LHipJoint
	{
		OFFSET 0 0 0
		CHANNELS 3 Zrotation Yrotation Xrotation
		JOINT LeftUpLeg
		{
			OFFSET 1.36337 -1.57426 1.11036
			CHANNELS 3 Zrotation Yrotation Xrotation
			JOINT LeftLeg
			{
				OFFSET 2.38468 -6.55187 0.00000
				CHANNELS 3 Zrotation Yrotation Xrotation
				JOINT LeftFoot
				{
					OFFSET 2.37166 -6.51609 0.00000
					CHANNELS 3 Zrotation Yrotation Xrotation
					JOINT LeftToeBase
					{
						OFFSET 0.29078 -0.79891 2.01393
						CHANNELS 3 Zrotation Yrotation Xrotation
						End Site
						{
							OFFSET 0.00000 -0.00000 1.07924
						}
					}
				}
			}
		}
	}
	JOINT RHipJoint
	{
		OFFSET 0 0 0
		CHANNELS 3 Zrotation Yrotation Xrotation
		JOINT RightUpLeg
		{
			OFFSET -1.36349 -1.57426 1.11036
			CHANNELS 3 Zrotation Yrotation Xrotation
			JOINT RightLeg
			{
				OFFSET -2.29562 -6.30717 0.00000
				CHANNELS 3 Zrotation Yrotation Xrotation
				JOINT RightFoot
				{
					OFFSET -2.40985 -6.62100 0.00000
					CHANNELS 3 Zrotation Yrotation Xrotation
					JOINT RightToeBase
					{
						OFFSET -0.23197 -0.63733 1.92232
						CHANNELS 3 Zrotation Yrotation Xrotation
						End Site
						{
							OFFSET -0.00000 -0.00000 1.01562
						}
					}
				}
			}
		}
	}
	JOINT LowerBack
	{
		OFFSET 0 0 0
		CHANNELS 3 Zrotation Yrotation Xrotation
		JOINT Spine
		{
			OFFSET -0.08565 2.03602 -0.24562
			CHANNELS 3 Zrotation Yrotation Xrotation
			JOINT Spine1
			{
				OFFSET -0.00036 2.05693 0.00216
				CHANNELS 3 Zrotation Yrotation Xrotation
				JOINT Neck
				{
					OFFSET 0 0 0
					CHANNELS 3 Zrotation Yrotation Xrotation
					JOINT Neck1
					{
						OFFSET -0.03664 1.69515 0.31789
						CHANNELS 3 Zrotation Yrotation Xrotation
						JOINT Head
						{
							OFFSET 0.00932 1.70181 -0.46013
							CHANNELS 3 Zrotation Yrotation Xrotation
							End Site
							{
								OFFSET 0.01243 1.77620 -0.19377
							}
						}
					}
				}
				JOINT LeftShoulder
				{
					OFFSET 0 0 0
					CHANNELS 3 Zrotation Yrotation Xrotation
					JOINT LeftArm
					{
						OFFSET 3.74344 0.81315 -0.36647
						CHANNELS 3 Zrotation Yrotation Xrotation
						JOINT LeftForeArm
						{
							OFFSET 4.97185 -0.00000 -0.00000
							CHANNELS 3 Zrotation Yrotation Xrotation
							JOINT LeftHand
							{
								OFFSET 3.35811 -0.00000 0.00000
								CHANNELS 3 Zrotation Yrotation Xrotation
								JOINT LeftFingerBase
								{
									OFFSET 0 0 0
									CHANNELS 3 Zrotation Yrotation Xrotation
									JOINT LeftHandIndex1
									{
										OFFSET 0.62278 -0.00000 0.00000
										CHANNELS 3 Zrotation Yrotation Xrotation
										End Site
										{
											OFFSET 0.50210 -0.00000 0.00000
										}
									}
								}
								JOINT LThumb
								{
									OFFSET 0 0 0
									CHANNELS 3 Zrotation Yrotation Xrotation
									End Site
									{
										OFFSET 0.50976 -0.00000 0.50976
									}
								}
							}
						}
					}
				}
				JOINT RightShoulder
				{
					OFFSET 0 0 0
					CHANNELS 3 Zrotation Yrotation Xrotation
					JOINT RightArm
					{
						OFFSET -3.75385 0.50666 -0.06525
						CHANNELS 3 Zrotation Yrotation Xrotation
						JOINT RightForeArm
						{
							OFFSET -4.96493 -0.00000 -0.00000
							CHANNELS 3 Zrotation Yrotation Xrotation
							JOINT RightHand
							{
								OFFSET -3.34929 -0.00000 0.00000
								CHANNELS 3 Zrotation Yrotation Xrotation
								JOINT RightFingerBase
								{
									OFFSET 0 0 0
									CHANNELS 3 Zrotation Yrotation Xrotation
									JOINT RightHandIndex1
									{
										OFFSET -0.63804 -0.00000 0.00000
										CHANNELS 3 Zrotation Yrotation Xrotation
										End Site
										{
											OFFSET -0.51441 -0.00000 0.00000
										}
									}
								}
								JOINT RThumb
								{
									OFFSET 0 0 0
									CHANNELS 3 Zrotation Yrotation Xrotation
									End Site
									{
										OFFSET -0.52226 -0.00000 0.52226
									}
								}
							}
						}
					}
				}
			}
		}
	}
}
MOTION
Frames: 14
Frame Time: .0083333
-4.189 16.718 -0.0914 0 0 0 0 0 0 -21 0 0 0 0 0 0 0 0 0 0 0 0 0 0 21 0 0 0 0 0 0 0 0 0 0 0 0 0 0 0 0 0 0 0 0 0 0 -16 0 0 21 0 0 11 0 0 0 -8 0 0 0 0 0 0 0 0 0 0 0 0 0 0 0 0 0 0 0 0 8 0 0 0 0 0 0 0 0 0 0 0 0 0 0 0 0 0
-4.1890 16.7180 -0.0914 148.5060 70.7111 152.7820 0.0000 0.0000 0.0000 -24.9586 -8.8309 1.5613 0.3300 3.6922 10.2122 0.5074 10.1396 -20.7251 0.0515 1.4651 4.0295 0.0000 0.0000 0.0000 3.3494 -0.4865 -0.0674 -1.0356 -6.4725 18.1618 -1.4296 -19.3053 -36.3613 -0.2252 -3.0546 8.4308 -11.1637 2.5943 -5.8850 -1.8895 4.6241 2.9768 4.7177 1.9201 5.7701 17.0660 16.5290 -4.8791 -17.8622 26.9067 20.2176 -4.9264 12.6884 12.3429 0.0000 -0.0000 0.0000 -92.3650 -6.3925 12.2200 11.2005 -18.5949 -1.8393 -0.0000 0.0000 -0.2756 20.6212 -7.2334 -2.7127 -7.1250 0.0000 -0.0000 -4.5090 22.2650 2.4719 0.0000 -0.0000 0.0000 88.2642 -0.4248 19.4768 -16.1664 25.7458 -3.7180 0.0000 -0.0000 -9.6785 -10.0694 -28.4779 4.8398 7.1250 -0.0000 -0.0000 22.6728 -57.3581 -7.1079
-4.1870 16.7293 -0.0887 149.1280 70.9972 153.5570 0.0000 0.0000 0.0000 -24.5768 -8.9119 1.1956 0.3544 3.8245 10.5836 0.4992 10.1643 -20.6671 0.0799 1.8233 5.0176 0.0000 0.0000 0.0000 3.7730 -0.0266 0.0387 -0.9896 -6.3316 17.7495 -1.3650 -19.6741 -36.3832 -0.2370 -3.1330 8.6492 -10.8464 2.5773 -6.1448 -1.8922 4.5990 2.8944 4.5530 1.9160 5.8542 15.6240 17.0546 -8.1997 -14.3882 27.3817 24.3522 -3.0839 12.7071 13.8840 0.0000 -0.0000 0.0000 -92.2553 -6.3193 12.5246 11.2466 -18.6652 -1.8541 -0.0000 0.0000 -0.7952 20.2314 -7.9195 -2.9069 -7.1250 0.0000 -0.0000 -4.7939 21.5585 2.7063 0.0000 -0.0000 0.0000 88.3491 -0.4222 19.4955 -15.8259 25.2840 -3.5713 0.0000 -0.0000 -8.9248 -9.9096 -29.5163 4.9193 7.1250 -0.0000 -0.0000 23.5953 -58.2719 -7.9462
-4.1836 16.7420 -0.0858 149.8460 71.2241 154.4510 0.0000 0.0000 0.0000 -24.1989 -9.0507 1.0640 0.3501 3.8016 10.5191 0.4700 10.4318 -20.6421 0.0758 1.7756 4.8859 0.0000 0.0000 0.0000 4.1923 0.3208 -0.0164 -0.9763 -6.2901 17.6286 -1.3916 -19.4982 -36.3497 -0.3222 -3.6487 10.0905 -10.5280 2.5499 -6.4136 -1.9040 4.5591 2.7964 4.3765 1.9060 5.9296 16.7124 16.6364 -6.5397 -16.4094 27.0592 22.5502 -4.1804 12.6558 13.3080 -0.0000 0.0000 0.0000 -92.0830 -6.3491 12.6565 11.1841 -18.5699 -1.8341 -0.0000 0.0000 -0.8208 20.1097 -8.2244 -2.9982 -7.1250 0.0000 -0.0000 -4.8829 21.2427 2.7919 -0.0000 0.0000 0.0000 88.4717 -0.4526 19.3584 -15.4952 24.8314 -3.4312 0.0000 -0.0000 -8.0531 -9.6813 -30.5489 4.9557 7.1250 -0.0000 -0.0000 24.6370 -59.1547 -8.8538
-4.1797 16.7434 -0.0856 148.9460 71.1915 153.5510 0.0000 0.0000 0.0000 -24.5197 -9.0974 1.1326 0.3545 3.8251 10.5850 0.4502 10.6612 -20.6779 0.0644 1.6379 4.5060 0.0000 0.0000 0.0000 3.8384 0.0836 0.0337 -0.9559 -6.2258 17.4409 -1.3843 -19.4487 -36.2619 -0.2575 -3.2647 9.0166 -10.6880 2.5395 -6.3085 -2.1329 4.5579 2.6854 4.2132 1.9207 5.7599 14.9079 17.2100 -8.8426 -12.6724 27.0520 24.8145 -2.4165 12.5929 13.6974 -0.0000 0.0000 0.0000 -91.8053 -6.2849 12.8409 11.1137 -18.4623 -1.8118 -0.0000 0.0000 -0.8770 20.4100 -8.1532 -3.0208 -7.1250 0.0000 -0.0000 -4.6651 21.3004 2.6605 -0.0000 0.0000 0.0000 88.7220 -0.5807 19.0496 -15.3396 24.6170 -3.3661 0.0000 -0.0000 -7.6321 -9.4325 -31.5974 4.9747 7.1250 -0.0000 -0.0000 25.7723 -60.0354 -9.8444
-4.1810 16.7494 -0.0859 148.7280 71.2641 153.3690 0.0000 0.0000 0.0000 -24.5530 -8.9856 0.9942 0.3598 3.8534 10.6647 0.4397 10.7257 -20.6382 0.0466 1.3928 3.8303 0.0000 0.0000 0.0000 3.7809 0.0262 0.0238 -0.9393 -6.1731 17.2874 -1.3425 -19.4635 -36.0533 -0.2549 -3.2485 8.9714 -10.6226 2.5534 -6.2395 -2.2702 4.5596 2.5389 4.0242 1.9428 5.5785 14.3265 16.7364 -8.7591 -11.7653 26.0927 24.8818 -2.2772 12.2274 13.2936 0.0000 -0.0000 0.0000 -91.6311 -6.0123 14.5648 11.3367 -18.8025 -1.8830 -0.0000 0.0000 -2.9266 21.3664 -7.4408 -2.9003 -7.1250 0.0000 -0.0000 -3.9656 22.0035 2.1961 0.0000 -0.0000 0.0000 88.9509 -0.8307 19.1003 -15.4059 24.7085 -3.3938 0.0000 -0.0000 -7.3529 -9.1380 -32.6605 4.9612 7.1250 -0.0000 -0.0000 27.0332 -60.9047 -10.9327
-4.1849 16.7547 -0.0837 148.7450 71.1805 153.4780 0.0000 0.0000 0.0000 -24.5629 -8.8555 0.7322 0.3669 3.8911 10.7705 0.4177 10.6403 -20.3218 0.0366 1.2350 3.3958 0.0000 0.0000 0.0000 3.7738 0.1396 0.0396 -0.9275 -6.1353 17.1774 -1.3436 -19.6716 -36.2670 -0.2628 -3.2980 9.1096 -10.5352 2.5294 -6.2605 -2.4781 4.5245 2.3557 3.7511 1.9493 5.4223 13.7660 16.2411 -8.7274 -10.6526 25.0212 24.9402 -2.0791 11.8260 12.8720 0.0000 -0.0000 0.0000 -91.2611 -5.8271 14.2474 11.0440 -18.3557 -1.7898 -0.0000 0.0000 -0.7702 19.9340 -10.7966 -3.8865 -7.1250 0.0000 -0.0000 -5.0351 18.5380 3.1854 0.0000 -0.0000 0.0000 89.3039 -1.0292 18.8892 -15.1798 24.3961 -3.2999 0.0000 -0.0000 -6.5234 -8.4874 -34.8116 4.8693 7.1250 -0.0000 -0.0000 29.8658 -62.6019 -13.3973
-4.1755 16.7519 -0.0868 148.6710 71.3178 153.3020 0.0000 0.0000 0.0000 -24.5568 -8.8739 0.7847 0.3843 3.9813 11.0240 0.4173 10.7523 -20.4356 0.0391 1.2759 3.5082 0.0000 0.0000 0.0000 3.8168 0.1816 0.2489 -0.9070 -6.0691 16.9850 -1.3028 -19.8418 -36.2212 -0.2260 -3.0602 8.4465 -10.5870 2.4250 -6.3438 -2.4000 4.3979 2.3949 3.8567 1.8759 5.5200 12.5377 15.8659 -9.5539 -9.3225 24.1827 25.4322 -1.5765 11.4346 12.7241 0.0000 -0.0000 0.0000 -91.3995 -5.7714 14.6204 11.0786 -18.4086 -1.8007 -0.0000 0.0000 -0.9403 20.0669 -11.4977 -4.1645 -7.1250 0.0000 -0.0000 -4.9557 17.7882 3.2169 0.0000 -0.0000 0.0000 89.1101 -0.7971 19.2488 -15.1142 24.3050 -3.2728 0.0000 -0.0000 -6.4732 -8.4488 -34.4522 4.8033 7.1250 -0.0000 -0.0000 29.5225 -62.2857 -13.0087
-4.1610 16.7502 -0.0904 148.8030 71.4885 153.3160 0.0000 0.0000 0.0000 -24.4517 -8.8662 0.8386 0.4056 4.0884 11.3255 0.4379 10.7500 -20.6444 0.0357 1.2196 3.3533 0.0000 0.0000 0.0000 3.9624 0.2254 0.5292 -0.8837 -5.9927 16.7632 -1.2595 -19.9482 -36.0975 -0.2162 -2.9935 8.2607 -10.5496 2.3388 -6.4426 -2.3433 4.2885 2.4069 3.8924 1.8162 5.6025 11.6338 15.2669 -10.5870 -8.3451 23.1603 26.2483 -1.2324 10.9431 12.8543 0.0000 0.0000 0.0000 -91.4832 -5.7337 14.8612 11.0765 -18.4054 -1.8000 -0.0000 0.0000 -0.9727 20.5178 -11.0216 -4.0923 -7.1250 0.0000 -0.0000 -4.6281 18.2541 2.9552 0.0000 0.0000 0.0000 89.0620 -0.6520 19.4175 -15.0620 24.2324 -3.2514 0.0000 -0.0000 -6.4722 -7.9527 -34.8370 4.5626 7.1250 -0.0000 -0.0000 30.4452 -62.4865 -13.6003
-4.1502 16.7516 -0.0966 148.5460 71.7802 152.9710 0.0000 0.0000 0.0000 -24.3973 -8.7565 0.7803 0.4338 4.2264 11.7146 0.4598 10.7330 -20.8494 0.0290 1.0990 3.0212 0.0000 0.0000 0.0000 3.9875 0.1276 0.7022 -0.8518 -5.8862 16.4547 -1.1986 -19.8872 -35.7065 -0.2193 -3.0147 8.3198 -10.5218 2.2913 -6.5026 -2.3073 4.2238 2.3756 3.9119 1.7841 5.6110 10.6276 14.5425 -11.5582 -7.5048 22.0146 26.9292 -0.9478 10.3867 12.9357 -0.0000 0.0000 0.0000 -91.5714 -5.5740 15.1293 11.1511 -18.5195 -1.8236 -0.0000 0.0000 -1.0265 20.6572 -10.1119 -3.7871 -7.1250 0.0000 -0.0000 -4.5107 19.2069 2.7843 -0.0000 0.0000 0.0000 89.0412 -0.5739 19.6334 -15.0388 24.2001 -3.2418 0.0000 -0.0000 -6.7297 -7.1901 -36.0820 4.2491 7.1250 -0.0000 -0.0000 32.6344 -63.3285 -15.3325
-4.1444 16.7559 -0.1039 148.3720 72.1567 152.7670 0.0000 0.0000 0.0000 -24.2717 -8.6074 0.6745 0.4529 4.3174 11.9713 0.4611 10.8405 -20.9741 0.0195 0.9018 2.4785 0.0000 0.0000 0.0000 4.0633 0.0115 0.6981 -0.8256 -5.7970 16.1966 -1.1320 -19.7231 -35.1707 -0.2306 -3.0911 8.5325 -10.4357 2.2183 -6.5504 -2.1999 4.1049 2.2813 3.9664 1.7301 5.5503 9.4050 13.6615 -12.3901 -6.8868 20.7463 27.3622 -0.7460 9.7493 12.9057 0.0000 -0.0000 0.0000 -91.7380 -5.2856 15.1586 11.2469 -18.6657 -1.8542 -0.0000 0.0000 -1.1305 20.3577 -9.7629 -3.6003 -7.1250 0.0000 -0.0000 -4.7181 19.5984 2.8719 0.0000 -0.0000 0.0000 88.8852 -0.5826 20.0465 -15.0266 24.1832 -3.2368 0.0000 -0.0000 -7.1322 -6.9718 -36.6511 4.1750 7.1250 -0.0000 -0.0000 33.5404 -63.7371 -16.1261
-4.1383 16.7655 -0.1118 149.2850 72.6870 153.7090 0.0000 0.0000 0.0000 -23.7428 -8.5688 0.4865 0.4721 4.4066 12.2235 0.4626 10.9771 -21.1314 0.0139 0.7614 2.0924 0.0000 0.0000 0.0000 4.5905 0.1000 0.6886 -0.7940 -5.6879 15.8816 -1.0292 -19.6489 -34.5153 -0.2938 -3.4855 9.6335 -10.0102 2.0840 -6.7313 -1.9473 3.8734 2.1609 3.9827 1.6236 5.5613 7.9887 12.6736 -13.1376 -6.2976 19.3852 27.6788 -0.5435 9.0555 12.8124 -0.0000 0.0000 0.0000 -92.0522 -5.1573 14.4864 11.1631 -18.5378 -1.8274 -0.0000 0.0000 -0.7146 19.8908 -10.3345 -3.7137 -7.1250 0.0000 -0.0000 -5.0583 19.0285 3.1449 -0.0000 0.0000 0.0000 88.5827 -0.6162 20.7620 -15.0223 24.1772 -3.2351 0.0000 -0.0000 -7.8220 -7.8668 -35.9254 4.6348 7.1250 -0.0000 -0.0000 31.7553 -63.3774 -14.9118
-4.1333 16.7668 -0.1185 148.4930 72.9136 152.8520 0.0000 0.0000 0.0000 -23.8880 -8.3835 0.5057 0.4812 4.4486 12.3423 0.4524 11.1169 -21.1772 0.0073 0.5518 1.5164 0.0000 0.0000 0.0000 4.4026 -0.0619 0.7327 -0.7735 -5.6155 15.6727 -0.9290 -19.7840 -34.0858 -0.2178 -3.0043 8.2906 -10.2115 1.9102 -6.7549 -1.8590 3.6520 2.1125 4.1656 1.5075 5.5378 6.6778 11.6649 -13.9245 -5.7113 18.0113 28.0837 -0.3390 8.3580 12.8075 0.0000 -0.0000 0.0000 -92.3603 -5.0476 13.9315 11.1198 -18.4716 -1.8137 -0.0000 0.0000 -0.5144 19.7321 -10.8053 -3.8470 -7.1250 0.0000 -0.0000 -5.1778 18.5444 3.2756 0.0000 -0.0000 0.0000 88.3079 -0.6360 21.5106 -15.0985 24.2831 -3.2663 0.0000 -0.0000 -8.4473 -9.0625 -34.7774 5.1984 7.1250 -0.0000 -0.0000 29.2323 -62.7204 -13.1681
-4.1283 16.7725 -0.1226 148.9210 73.3472 153.2460 0.0000 0.0000 0.0000 -23.5531 -8.2676 0.4879 0.4858 4.4693 12.4010 0.4302 11.3432 -21.1967 0.0017 0.2648 0.7277 0.0000 0.0000 0.0000 4.7557 0.1483 0.8016 -0.7584 -5.5618 15.5180 -0.8909 -19.6972 -33.7694 -0.2400 -3.1529 8.7048 -10.0288 1.7969 -6.8359 -1.6783 3.4697 2.0247 4.2390 1.4213 5.5129 5.6319 10.5611 -14.4483 -5.4663 16.5213 28.1597 -0.3314 7.6081 12.7029 -0.0000 0.0000 0.0000 -92.5355 -4.6926 14.4180 11.2926 -18.7354 -1.8688 -0.0000 0.0000 -1.1440 20.0120 -10.5485 -3.8145 -7.1250 0.0000 -0.0000 -4.9758 18.7937 3.1192 -0.0000 0.0000 0.0000 88.1205 -0.6567 21.8351 -15.2324 24.4689 -3.3216 0.0000 -0.0000 -8.4602 -8.8148 -34.7471 5.0509 7.1250 -0.0000 -0.0000 29.4572 -62.6309 -13.2168
